<svg width="18" height="18" viewBox="0 0 18 18" fill="none" xmlns="http://www.w3.org/2000/svg">
<mask id="mask0_1129_183" style="mask-type:luminance" maskUnits="userSpaceOnUse" x="0" y="0" width="18" height="18">
<path d="M9 0.666687L11.1888 2.26335L13.8983 2.25835L14.7304 4.83669L16.9254 6.42502L16.0833 9.00002L16.9254 11.575L14.7304 13.1634L13.8983 15.7417L11.1888 15.7367L9 17.3334L6.81125 15.7367L4.10167 15.7417L3.26958 13.1634L1.07458 11.575L1.91667 9.00002L1.07458 6.42502L3.26958 4.83669L4.10167 2.25835L6.81125 2.26335L9 0.666687Z" fill="#555555" stroke="white" stroke-linecap="round" stroke-linejoin="round"/>
<path d="M6.08331 9.00002L8.16665 11.0834L12.3333 6.91669" stroke="white" stroke-linecap="round" stroke-linejoin="round"/>
</mask>
<g mask="url(#mask0_1129_183)">
<path d="M-1 -1H19V19H-1V-1Z" fill="#0077C8"/>
</g>
</svg>
